<?xml version="1.0"?>
<svg width="448" height="512" xmlns="http://www.w3.org/2000/svg" xmlns:svg="http://www.w3.org/2000/svg" xmlns:se="http://svg-edit.googlecode.com" class="svg-inline--fa fa-quora fa-w-14" data-icon="quora" data-prefix="fab">
 <g class="layer">
  <title>Layer 1</title>
  <path d="m446.493584,404.787924l-30.246473,0c-1.548454,15.368303 -10.83918,35.062499 -34.065993,35.062499c-21.162208,0 -36.44029,-16.165178 -51.09899,-40.754463c45.627785,-38.933035 77.113022,-99.609372 77.113022,-174.174102c0.10323,-133.761157 -99.720454,-223.921869 -204.808882,-223.921869c-102.920592,0 -204.08627,90.729908 -204.08627,223.921869c0,152.658478 135.541362,252.26785 257.043405,215.156244c20.336366,38.249999 47.176239,70.921873 98.27523,70.921873c84.442372,0 93.733097,-85.72098 91.874952,-106.212051zm-148.135456,-65.457588c-20.129905,-33.241071 -45.111634,-59.424106 -94.455709,-59.424106c-31.485236,0 -56.054044,11.383928 -71.228895,25.955356l12.594095,27.662946c6.400278,-3.415178 13.419937,-4.553571 20.439596,-4.553571c36.646751,0 55.434662,35.062499 71.435356,69.78348c-10.323028,3.415178 -21.368669,4.78125 -33.756303,4.78125c-77.422712,0 -110.972554,-60.33482 -110.972554,-178.386156c0,-118.848211 33.549842,-179.752227 110.972554,-179.752227c78.661476,0 112.211318,60.904016 112.211318,179.524549c0.10323,47.58482 -5.574435,86.062498 -17.239457,114.408479z" fill="#a51515" id="svg_1"/>
 </g>
</svg>